<?xml version="1.0" encoding="UTF-8"?>
<!-- Generated by Pixelmator Pro 3.6.4 -->
<svg width="18" height="18" viewBox="0 0 18 18" xmlns="http://www.w3.org/2000/svg">
    <path id="Path" fill="none" stroke="currentColor" stroke-width="1.5" stroke-linecap="round" d="M 9 5.25 L 4.875 5.25 C 4.253677 5.25 3.75 5.753677 3.75 6.375 L 3.75 13.125 C 3.75 13.7463 4.253677 14.25 4.875 14.25 L 11.625 14.25 C 12.2463 14.25 12.75 13.7463 12.75 13.125 L 12.75 9.75"/>
    <path id="path1" fill="currentColor" fill-rule="evenodd" stroke="none" d="M 14.391601 5.043751 L 14.391601 5.043751 C 14.6919 4.758457 14.704049 4.283737 14.418751 3.983438 L 14.418751 3.983438 C 14.133451 3.683129 13.658775 3.670958 13.358476 3.956249 L 13.358476 3.956249 L 13.212824 4.09461 C 12.90705 4.385084 12.900825 4.870477 13.199024 5.168693 L 13.199024 5.168693 C 13.48665 5.456287 13.951051 5.462243 14.24595 5.18211 L 14.391601 5.043751 Z M 12.6279 5.658225 C 12.926101 5.956448 12.919875 6.441833 12.6141 6.732307 L 6.891563 12.168751 L 6.891563 12.168751 C 6.591263 12.45405 6.116542 12.441899 5.83125 12.141525 L 5.83125 12.141525 C 5.545965 11.841225 5.558137 11.36655 5.858438 11.08125 L 5.858438 11.08125 L 11.580976 5.644807 C 11.875875 5.364675 12.340275 5.370629 12.6279 5.658225 L 12.6279 5.658225 Z"/>
</svg>
